<?xml version="1.0" encoding="UTF-8"?>
<svg id="Layer_2" xmlns="http://www.w3.org/2000/svg" viewBox="0 0 155.86 109.13">
  <defs>
    <style>
      .cls-1 {
        fill: #fff;
      }
    </style>
  </defs>
  <g id="Layer_4">
    <path class="cls-1" d="M154.34,58.24l-49.38,49.38c-2.03,2.03-5.31,2.03-7.34,0l-49.38-49.38c-2.03-2.03-2.03-5.31,0-7.34l15.52-15.52,9.99,9.99-5.53,5.53c-2.03,2.03-2.03,5.31,0,7.34l29.41,29.41c2.03,2.03,5.31,2.03,7.34,0l29.41-29.41c2.03-2.03,2.03-5.31,0-7.34l-29.41-29.41c-2.03-2.03-5.31-2.03-7.34,0l-5.53,5.53-9.99-9.99,15.52-15.52c2.03-2.03,5.31-2.03,7.34,0l49.38,49.38c2.03,2.03,2.03,5.31,0,7.34ZM73.75,92.1l-9.99-9.99-5.53,5.53c-2.03,2.03-5.31,2.03-7.34,0l-29.41-29.41c-2.03-2.03-2.03-5.31,0-7.34l29.41-29.41c2.03-2.03,5.31-2.03,7.34,0l29.41,29.41c2.03,2.03,2.03,5.31,0,7.34l-5.53,5.53,9.99,9.99,15.52-15.52c2.03-2.03,2.03-5.31,0-7.34L58.24,1.52c-2.03-2.03-5.31-2.03-7.34,0L1.52,50.9c-2.03,2.03-2.03,5.31,0,7.34l49.38,49.38c2.03,2.03,5.31,2.03,7.34,0l15.52-15.52Z"/>
  </g>
</svg>